PathFileType	3	(X/Y/Z)	F:\ViconData\AntennenMessung\Messung1\Session1\ID20.trc
DataRate	CameraRate	NumFrames	NumMarkers	Units	OrigDataRate	OrigDataStartFrame	OrigNumFrames
120.0	120.0	4	70	mm	120.0	648	1036	
Frame#	Time	Ashort			Along			Atop			A4			Bshort			Blong			Btop			B4			Cshort			Clong			Ctop			C4			Dshort			Dlong			Dtop			D4			Eshort			Elong			Etop			E4			Fshort			Flong			Ftop			F4			Gshort			Glong			Gtop			G4			Hshort			Hlong			Htop			H4			I1			I2			I3			I4			I5			WandAshort			WandAlong			WandAtop			WandA4			WandA15			WandBshort			WandB4			WandB5			WandBtop			WandBlong			WandCshort			WandClong			WandCtop			WandC4			WandC5			Acenter			Aantenna			Bcenter			Bantenna			Ccenter			Cantenna			Dcenter			Dantenna			Ecenter			Eantenna			Fcenter			Fantenna			Gcenter			Gantenna			Hcenter			Hantenna			Icenter			Iantenna			
		X1	Y1	Z1	X2	Y2	Z2	X3	Y3	Z3	X4	Y4	Z4	X5	Y5	Z5	X6	Y6	Z6	X7	Y7	Z7	X8	Y8	Z8	X9	Y9	Z9	X10	Y10	Z10	X11	Y11	Z11	X12	Y12	Z12	X13	Y13	Z13	X14	Y14	Z14	X15	Y15	Z15	X16	Y16	Z16	X17	Y17	Z17	X18	Y18	Z18	X19	Y19	Z19	X20	Y20	Z20	X21	Y21	Z21	X22	Y22	Z22	X23	Y23	Z23	X24	Y24	Z24	X25	Y25	Z25	X26	Y26	Z26	X27	Y27	Z27	X28	Y28	Z28	X29	Y29	Z29	X30	Y30	Z30	X31	Y31	Z31	X32	Y32	Z32	X33	Y33	Z33	X34	Y34	Z34	X35	Y35	Z35	X36	Y36	Z36	X37	Y37	Z37	X38	Y38	Z38	X39	Y39	Z39	X40	Y40	Z40	X41	Y41	Z41	X42	Y42	Z42	X43	Y43	Z43	X44	Y44	Z44	X45	Y45	Z45	X46	Y46	Z46	X47	Y47	Z47	X48	Y48	Z48	X49	Y49	Z49	X50	Y50	Z50	X51	Y51	Z51	X52	Y52	Z52	X53	Y53	Z53	X54	Y54	Z54	X55	Y55	Z55	X56	Y56	Z56	X57	Y57	Z57	X58	Y58	Z58	X59	Y59	Z59	X60	Y60	Z60	X61	Y61	Z61	X62	Y62	Z62	X63	Y63	Z63	X64	Y64	Z64	X65	Y65	Z65	X66	Y66	Z66	X67	Y67	Z67	X68	Y68	Z68	X69	Y69	Z69	X70	Y70	Z70	
648	5.3916667	-1038.2413	214.43669	-1644.1782	-1109.3929	204.16539	-1599.3097	-1063.9821	172.58104	-1625.4082	-1054.2222	262.27881	-1635.0172	-1353.0081	234.86914	1003.696	-1281.3097	227.03737	1052.4382	-1322.6968	193.99049	1020.9689	-1284.6316	287.85147	1052.7548	813.97675	187.55829	1209.5564	892.44598	178.34648	1179.2883	844.69153	145.15875	1198.5006	860.8136	292.43771	1168.4922	1115.7002	209.85837	-1401.8008	1056.0791	193.98351	-1460.3999	1095.094	162.59731	-1423.9598	1069.8519	238.63306	-1425.8568	-1204.5181	1685.9263	-1563.1814	-1129.1626	1688.2794	-1606.0096	-1173.172	1724.291	-1581.9135	-1134.0764	1580.9657	-1603.8641	-1239.6791	1699.1249	1119.5399	-1309.2855	1698.6312	1071.9393	-1270.4043	1736.2703	1096.9492	-1245.4258	1592.6465	1110.7399	988.92084	1664.2637	1162.2616	955.85272	1702.3625	1181.1058	922.99805	1661.9459	1215.2361	939.7627	1659.3986	1159.9366	998.93164	1668.4951	-1579.556	1058.7781	1670.1329	-1518.6871	1024.9128	1708.0366	-1551.1642	1059.1921	1672.1458	-1585.5052	-113.19202	159.60991	-223.82722	-29.202211	168.70631	-221.13605	-72.180176	127.0289	-224.62727	-75.809196	164.96416	-254.79257	-78.49218	163.29016	-175.43297																																														-1068.9917	209.99763	-1624.7869	-1074.1664	248.64746	-1624.1453	-1321.4502	231.42201	1025.1497	-1320.1603	270.15979	1029.4763	848.34607	183.52353	1196.299	852.03833	222.28461	1194.0746	1088.7134	202.67281	-1428.3248	1082.6167	240.96683	-1432.4958	-1171.8969	1686.9448	-1581.7216	-1170.5658	1647.9681	-1581.5212	-1270.9595	1698.903	1098.1486	-1271.5385	1659.9274	1099.3997	953.68884	1704.8555	1182.339	972.94086	1731.7723	1161.703	1026.4178	1669.2474	-1551.6001	1027.9298	1630.2791	-1552.0381	-76.206245	163.6156	-222.64212	-80.465942	202.32533	-220.54181
649	5.4	-1038.2415	214.48866	-1644.1971	-1109.3832	204.20486	-1599.3549	-1063.9993	172.63892	-1625.3986	-1054.2224	262.30551	-1635.0468	-1352.8522	234.93903	1003.6465	-1281.3126	227.06662	1052.4587	-1322.7036	193.98357	1020.8962	-1284.7633	287.87839	1052.8805	814.01147	187.61754	1209.6239	892.7998	178.98502	1178.7881	844.75299	145.11163	1198.4586	860.85242	292.44769	1168.5497	1115.7048	209.84721	-1401.8047	1056.0393	193.90901	-1460.3359	1095.0419	162.56462	-1423.9849	1069.8015	238.58948	-1425.8147	-1204.5146	1685.9111	-1563.1887	-1129.146	1688.2963	-1606.0269	-1173.1775	1724.2937	-1581.9028	-1134.0707	1580.9636	-1603.8683	-1239.6754	1699.1265	1119.5302	-1309.3186	1698.704	1071.9736	-1270.3811	1736.2369	1096.9424	-1245.474	1592.6952	1110.7476	988.87134	1664.2305	1162.262	955.78131	1702.2555	1181.0538	922.95355	1662.0126	1215.2885	939.78528	1659.4291	1159.9044	998.95496	1668.4729	-1579.5244	1058.6581	1669.9611	-1518.6945	1024.9193	1708.0378	-1551.1611	1059.1947	1672.1393	-1585.4988	-113.43146	159.9202	-223.98596	-29.192894	168.71594	-221.14716	-72.198761	127.01882	-224.68758	-75.786781	164.98724	-254.80305	-78.488297	163.29997	-175.45634																																														-1069.0244	210.03885	-1624.7938	-1074.2173	248.68655	-1624.1689	-1321.4341	231.48169	1025.0833	-1320.1227	270.21887	1029.4089	848.14221	183.87796	1196.266	851.53357	222.66821	1194.0718	1088.635	202.61612	-1428.3599	1082.5101	240.90442	-1432.5424	-1171.8962	1686.9434	-1581.7284	-1170.5592	1647.9668	-1581.5461	-1270.9812	1698.9365	1098.1526	-1271.6084	1659.962	1099.4172	953.50171	1704.8749	1182.3484	972.68903	1731.7968	1161.6588	1026.3491	1669.1558	-1551.6132	1027.7821	1630.1847	-1552.0662	-76.107101	163.81741	-222.72813	-80.220322	202.54503	-220.66597
650	5.4083333	-1038.2438	214.51233	-1644.2018	-1109.3888	204.19583	-1599.3331	-1063.9493	172.61909	-1625.4264	-1054.2112	262.33261	-1635.0453	-1352.8959	234.89673	1003.6483	-1281.3441	227.1012	1052.4117	-1322.7714	193.97647	1020.9084	-1284.7692	287.87503	1052.8997	813.99072	187.66876	1209.6321	892.80438	179.01837	1178.7583	844.4292	145.39047	1198.4263	860.87146	292.40436	1168.4418	1115.6818	209.5853	-1401.6326	1056.054	193.99489	-1460.4152	1095.0806	162.42807	-1423.9115	1069.8407	238.58722	-1425.8002	-1204.5253	1685.9141	-1563.1648	-1129.1416	1688.2623	-1605.9967	-1173.2056	1724.3748	-1581.8994	-1134.0696	1580.9835	-1603.8705	-1239.6711	1699.1211	1119.5378	-1309.309	1698.6809	1071.9578	-1270.365	1736.2166	1096.9281	-1245.3583	1592.536	1110.7137	988.83716	1664.2152	1162.2471	955.76538	1702.2228	1181.0961	922.98993	1662.0111	1215.3201	939.73651	1659.4432	1159.9587	998.92969	1668.476	-1579.5238	1058.6602	1669.9779	-1518.6971	1024.9172	1708.0436	-1551.1566	1059.1924	1672.142	-1585.5106	-113.41976	159.94992	-224.01376	-29.189623	168.71466	-221.14006	-72.204582	127.02933	-224.68555	-75.783379	164.97148	-254.80505	-78.44381	163.2999	-175.4641																																														-1068.9897	210.05396	-1624.8113	-1074.1932	248.70006	-1624.1764	-1321.5032	231.47652	1025.0426	-1320.193	270.21979	1029.3141	847.85468	183.95193	1196.3663	851.30066	222.74408	1194.2942	1088.7756	202.55037	-1428.1571	1082.7543	240.86877	-1432.212	-1171.9204	1686.9296	-1581.6903	-1170.5826	1647.9531	-1581.4729	-1270.9673	1698.9232	1098.1547	-1271.5966	1659.9495	1099.4364	953.47168	1704.8588	1182.4033	972.63434	1731.7953	1161.71	1026.3483	1669.1654	-1551.6019	1027.7827	1630.1943	-1552.0483	-76.100647	163.83322	-222.74051	-80.200592	202.56308	-220.69373
651	5.4166667	-1038.2386	214.53004	-1644.2096	-1109.4082	204.15178	-1599.3076	-1063.9546	172.62737	-1625.4266	-1054.2021	262.3028	-1635.0358	-1352.974	234.87431	1003.685	-1281.3914	227.32791	1052.3265	-1322.6984	193.95213	1020.9489	-1284.7686	287.85065	1052.8588	813.91486	187.62122	1209.6274	892.42932	178.41177	1179.3037	844.76569	145.12334	1198.4304	860.89374	292.44681	1168.5863	1115.7006	209.84488	-1401.8081	1056.0189	193.89584	-1460.3652	1095.0431	162.36281	-1423.9575	1069.8313	238.57088	-1425.8129	-1204.5917	1685.9799	-1563.0345	-1129.1658	1688.2737	-1606.0149	-1173.1823	1724.2909	-1581.9087	-1134.0568	1580.9543	-1603.8605	-1240.5436	1698.7377	1118.3783	-1309.2836	1698.6685	1071.9513	-1270.4078	1736.29	1096.9575	-1245.401	1592.6213	1110.7299	988.94403	1664.2969	1162.2731	955.91028	1702.3042	1181.1245	923.03387	1661.9921	1215.2328	939.79517	1659.4319	1159.9336	998.94073	1668.4795	-1579.5256	1058.6537	1669.9686	-1518.6948	1024.9069	1708.0403	-1551.1639	1059.1937	1672.1467	-1585.5192	-113.45068	159.93089	-224.01968	-29.1957	168.71121	-221.13454	-72.199387	127.02724	-224.705	-75.780884	164.97017	-254.84244	-78.466484	163.30406	-175.45583																																														-1069.0118	210.04256	-1624.7943	-1074.235	248.68568	-1624.1415	-1321.5243	231.55881	1025.0555	-1320.3147	270.30966	1029.2874	848.44855	183.57054	1196.2898	852.16174	222.33333	1194.1316	1088.6228	202.60873	-1428.3756	1082.5149	240.89745	-1432.579	-1171.9058	1686.9738	-1581.66	-1170.5724	1647.9974	-1581.4004	-1270.9618	1698.707	1097.8337	-1271.5365	1659.7218	1098.7426	953.66095	1704.8921	1182.4081	972.89667	1731.8359	1161.7922	1026.3373	1669.1626	-1551.6162	1027.771	1630.1915	-1552.0697	-76.101196	163.82312	-222.74072	-80.207893	202.55118	-220.67332
